<svg width="512" height="512" viewBox="0 0 512 512" fill="none" xmlns="http://www.w3.org/2000/svg">
<path fill-rule="evenodd" clip-rule="evenodd" d="M256 512C397.385 512 512 397.385 512 256C512 114.615 397.385 0 256 0C114.615 0 0 114.615 0 256C0 397.385 114.615 512 256 512ZM256 490.455C385.486 490.455 490.455 385.486 490.455 256C490.455 126.514 385.486 21.5445 256 21.5445C126.514 21.5445 21.5445 126.514 21.5445 256C21.5445 385.486 126.514 490.455 256 490.455ZM128 354.835L181.492 213.462L200.597 251.671L257.91 98.8354L326.686 308.985L345.791 282.238L384 354.835H128Z" fill="#C1600C"/>
</svg>
